<?xml version="1.0" encoding="UTF-8" standalone="no"?>
<!-- Created with Inkscape (http://www.inkscape.org/) -->

<svg
   xmlns:dc="http://purl.org/dc/elements/1.1/"
   xmlns:cc="http://creativecommons.org/ns#"
   xmlns:rdf="http://www.w3.org/1999/02/22-rdf-syntax-ns#"
   xmlns:svg="http://www.w3.org/2000/svg"
   xmlns="http://www.w3.org/2000/svg"
   xmlns:xlink="http://www.w3.org/1999/xlink"
   xmlns:sodipodi="http://sodipodi.sourceforge.net/DTD/sodipodi-0.dtd"
   xmlns:inkscape="http://www.inkscape.org/namespaces/inkscape"
   width="57"
   height="57"
   id="svg59604"
   version="1.1"
   inkscape:version="0.48.4 r9939"
   sodipodi:docname="app_icon_3.svg"
   inkscape:export-filename="/home/alexander/projects/QtQuickVcp/applications/AppDiscover/icons/machinekit.iconset/icon_512x512@2x.png"
   inkscape:export-xdpi="1616.8422"
   inkscape:export-ydpi="1616.8422">
  <defs
     id="defs59606">
    <linearGradient
       id="linearGradient60875">
      <stop
         style="stop-color:#ffffff;stop-opacity:1;"
         offset="0"
         id="stop60877" />
      <stop
         style="stop-color:#000000;stop-opacity:0;"
         offset="1"
         id="stop60879" />
    </linearGradient>
    <linearGradient
       id="linearGradient60863">
      <stop
         style="stop-color:#ffffff;stop-opacity:0.33725491;"
         offset="0"
         id="stop60865" />
      <stop
         id="stop60871"
         offset="0.62"
         style="stop-color:#ffffff;stop-opacity:0.29411766;" />
      <stop
         style="stop-color:#000000;stop-opacity:0.23529412;"
         offset="0.62"
         id="stop60873" />
      <stop
         style="stop-color:#ffffff;stop-opacity:0;"
         offset="1"
         id="stop60867" />
    </linearGradient>
    <radialGradient
       inkscape:collect="always"
       xlink:href="#linearGradient60863"
       id="radialGradient60869"
       cx="103.5"
       cy="1002.8621"
       fx="103.5"
       fy="1002.8621"
       r="28.5"
       gradientTransform="matrix(-2.7081932,6.0130083e-8,-3.4418382e-8,-1.5501666,308.79804,2550.4569)"
       gradientUnits="userSpaceOnUse" />
    <linearGradient
       inkscape:collect="always"
       xlink:href="#linearGradient60875"
       id="linearGradient60881"
       x1="57"
       y1="995.36218"
       x2="57"
       y2="1008.3265"
       gradientUnits="userSpaceOnUse"
       gradientTransform="matrix(0.98275859,0,0,0.98275867,0.49137933,17.652719)" />
  </defs>
  <sodipodi:namedview
     id="base"
     pagecolor="#ffffff"
     bordercolor="#666666"
     borderopacity="1.0"
     inkscape:pageopacity="0.0"
     inkscape:pageshadow="2"
     inkscape:zoom="5.6"
     inkscape:cx="1.1812155"
     inkscape:cy="7.8550324"
     inkscape:document-units="px"
     inkscape:current-layer="layer1"
     showgrid="false"
     inkscape:snap-page="true"
     inkscape:snap-bbox="false"
     inkscape:bbox-nodes="false"
     inkscape:snap-bbox-edge-midpoints="false"
     inkscape:snap-bbox-midpoints="true"
     inkscape:window-width="1600"
     inkscape:window-height="884"
     inkscape:window-x="-5"
     inkscape:window-y="-10"
     inkscape:window-maximized="1" />
  <metadata
     id="metadata59609">
    <rdf:RDF>
      <cc:Work
         rdf:about="">
        <dc:format>image/svg+xml</dc:format>
        <dc:type
           rdf:resource="http://purl.org/dc/dcmitype/StillImage" />
        <dc:title></dc:title>
      </cc:Work>
    </rdf:RDF>
  </metadata>
  <g
     inkscape:label="Layer 1"
     inkscape:groupmode="layer"
     id="layer1"
     transform="translate(0,-995.36218)">
    <rect
       style="fill:#008080;fill-opacity:1;stroke:none"
       id="rect11634"
       width="57"
       height="56.999996"
       x="0"
       y="995.36218"
       inkscape:export-filename="/home/alexander/Documents/Bachelorarbeit2/svg/presentation/wp.png"
       inkscape:export-xdpi="300.0311"
       inkscape:export-ydpi="300.0311"
       rx="10"
       ry="10" />
    <g
       id="g11347"
       transform="matrix(0.5096307,0,0,0.5096307,53.605252,836.06599)">
      <path
         inkscape:connector-curvature="0"
         id="path11308"
         d="M -52.292903,324.88531 C -52.531903,324.88531 -53.311653,325.76056 -53.636653,327.16656 L -55.605403,335.04156 -56.261653,337.66656 -58.824153,338.47906 C -60.564153,339.03606 -62.292153,339.76331 -63.949153,340.63531 L -66.449153,341.94781 -68.824153,340.44781 -75.824153,335.97906 -75.886653,335.91656 -75.980403,335.88531 C -76.432403,335.57031 -77.098153,335.35406 -77.699153,335.35406 -77.883153,335.35406 -78.335903,335.36881 -78.542903,335.57281 L -82.855403,339.88531 C -83.027403,340.05331 -82.930903,341.22681 -82.167903,342.44781 L -77.699153,349.88531 -76.324153,352.16656 -77.511653,354.54156 C -78.310653,356.15056 -78.907403,357.61856 -79.355403,359.04156 L -80.199153,361.72906 -82.917903,362.32281 -90.699153,364.07281 -90.792903,364.07281 -90.886653,364.10406 C -91.892653,364.28506 -92.917903,365.20806 -92.917903,365.72906 L -92.917903,371.79156 C -92.917903,372.02956 -92.039653,372.78306 -90.636653,373.10406 L -82.667903,375.10406 -80.042903,375.76031 -79.230403,378.29156 C -78.781403,379.66256 -78.195403,381.04506 -77.480403,382.47906 L -76.324153,384.85406 -77.667903,387.10406 -82.105403,394.51031 C -82.920403,395.81031 -83.023403,396.99456 -82.855403,397.16656 L -78.542903,401.41656 C -78.329903,401.62957 -77.846153,401.66656 -77.699153,401.66656 -77.101153,401.66656 -76.435403,401.45031 -75.980403,401.13531 L -75.886653,401.10406 -75.824153,401.04156 -68.792903,396.57281 -66.417903,395.07281 -63.917903,396.38531 C -62.231903,397.27531 -60.517903,397.99756 -58.792903,398.54156 L -56.199153,399.35406 -55.542903,401.97906 -53.605403,409.72906 C -53.262403,411.22406 -52.499653,412.10406 -52.261653,412.10406 L -46.167903,412.10406 C -45.642903,412.10406 -44.756153,411.11106 -44.574153,410.10406 L -44.542903,410.01031 -44.511653,409.91656 -42.761653,402.01031 -42.167903,399.32281 -39.542903,398.44781 C -37.955903,397.93281 -36.355903,397.28807 -34.792903,396.47906 L -32.292903,395.16656 -29.949153,396.66656 -23.105403,401.04156 -23.011653,401.10406 -22.949153,401.13531 C -22.494153,401.45131 -21.828403,401.66656 -21.230403,401.66656 -21.087403,401.66656 -20.593653,401.65582 -20.386653,401.44781 L -16.074153,397.13531 C -15.912153,396.97332 -15.994653,395.79881 -16.761653,394.57281 L -21.011653,387.47906 -22.417903,385.16656 -21.199153,382.79156 C -20.439153,381.29956 -19.785903,379.78557 -19.292903,378.29156 L -18.449153,375.72906 -15.855403,375.10406 -7.980403,373.13531 C -6.488403,372.79331 -5.605403,371.99831 -5.605403,371.76031 L -5.605403,365.72906 C -5.605403,365.20506 -6.603403,364.28506 -7.605403,364.10406 L -7.730403,364.07281 -7.824153,364.07281 -15.605403,362.32281 -18.324153,361.72906 -19.167903,359.04156 C -19.657903,357.47656 -20.309903,355.90606 -21.167903,354.22906 L -22.386653,351.82281 -21.011653,349.51031 -16.792903,342.51031 C -15.979903,341.20931 -15.902153,340.02206 -16.074153,339.85406 L -20.355403,335.60406 C -20.569403,335.39106 -21.053153,335.35406 -21.199153,335.35406 -21.796153,335.35406 -22.498153,335.57031 -22.949153,335.88531 L -23.011653,335.91656 -23.105403,335.97906 -29.917903,340.32281 -32.292903,341.82281 -34.761653,340.54156 C -36.339653,339.72256 -37.962153,339.03231 -39.574153,338.51031 L -42.230403,337.66656 -42.824153,334.97906 -44.574153,327.10406 -44.574153,327.01031 -44.605403,326.91656 C -44.786403,325.91156 -45.706403,324.88531 -46.230403,324.88531 L -52.292903,324.88531 z M -49.230403,349.07281 C -38.501403,349.07281 -29.761653,357.77906 -29.761653,368.47906 -29.761653,379.17906 -38.501403,387.88531 -49.230403,387.88531 -59.956403,387.88531 -68.667903,379.17906 -68.667903,368.47906 -68.667903,357.77906 -59.956403,349.07281 -49.230403,349.07281 z"
         style="fill:#ffd75e;fill-opacity:1;stroke:none" />
      <g
         id="g11320"
         transform="translate(-99.262653,318.49669)">
        <g
           id="g11322">
          <path
             inkscape:connector-curvature="0"
             d="M 92.501,40.823 84.719,39.098 C 84.111,37.161 83.32,35.306 82.406,33.521 L 86.619,26.511 C 88.191,24 88.983,20.31 86.619,17.943 L 82.327,13.657 C 81.169,12.499 79.613,12.009 78.048,12.009 76.422,12.009 74.779,12.537 73.549,13.389 L 66.724,17.735 C 64.953,16.816 63.104,16.033 61.178,15.409 L 59.429,7.541 C 58.91,4.652 56.384,1.528 53.033,1.528 H 46.972 C 43.622,1.528 41.569,4.7 40.905,7.589 L 38.961,15.362 C 36.903,16.017 34.933,16.854 33.052,17.843 L 26.056,13.388 C 24.828,12.535 23.183,12.008 21.557,12.008 19.992,12.008 18.439,12.498 17.278,13.656 L 12.992,17.942 C 10.621,20.309 11.413,24 12.992,26.51 L 17.421,33.888 C 16.59,35.562 15.852,37.289 15.283,39.096 L 7.501,40.821 C 4.612,41.343 1.484,43.866 1.484,47.21 V 53.272 C 1.484,56.615 4.659,58.668 7.548,59.33 L 15.429,61.296 C 15.976,62.962 16.654,64.57 17.424,66.123 L 12.992,73.508 C 11.417,76.015 10.625,79.704 12.992,82.072 L 17.281,86.358 C 18.439,87.516 19.991,88.004 21.56,88.004 23.185,88.004 24.828,87.478 26.059,86.625 L 33.072,82.16 C 34.962,83.156 36.945,83.999 39.012,84.655 L 40.953,92.408 C 41.615,95.295 43.666,98.468 47.016,98.468 H 53.081 C 56.431,98.468 58.958,95.342 59.477,92.454 L 61.229,84.566 C 63.132,83.951 64.958,83.175 66.712,82.267 L 73.549,86.624 C 74.779,87.477 76.422,88.003 78.048,88.003 79.613,88.003 81.169,87.515 82.327,86.357 L 86.619,82.071 C 88.983,79.703 88.191,76.013 86.619,73.507 L 82.403,66.487 C 83.25,64.823 83.984,63.091 84.573,61.295 L 92.454,59.329 C 95.344,58.667 98.518,56.614 98.518,53.271 V 47.209 C 98.518,43.869 95.394,41.346 92.501,40.823 z M 93.666,53.274 C 93.666,53.512 92.771,54.286 91.279,54.628 L 83.398,56.594 80.798,57.244 79.964,59.789 C 79.471,61.283 78.838,62.798 78.078,64.29 L 76.855,66.684 78.239,68.985 82.504,76.076 C 83.271,77.302 83.353,78.482 83.191,78.644 L 78.889,82.936 C 78.682,83.144 78.189,83.163 78.046,83.163 77.448,83.163 76.763,82.959 76.308,82.643 L 76.236,82.591 76.157,82.541 69.316,78.182 66.959,76.68 64.478,77.966 C 62.915,78.775 61.321,79.442 59.734,79.957 L 57.092,80.81 56.49,83.52 54.741,91.407 54.719,91.502 54.702,91.598 C 54.52,92.605 53.605,93.622 53.08,93.622 H 47.015 C 46.777,93.622 46,92.731 45.657,91.236 L 43.716,83.481 43.057,80.853 40.471,80.036 C 38.746,79.492 37.019,78.766 35.333,77.876 L 32.839,76.562 30.462,78.077 23.449,82.544 23.369,82.592 23.293,82.646 C 22.838,82.961 22.157,83.166 21.559,83.166 21.412,83.166 20.922,83.147 20.709,82.934 L 16.42,78.654 C 16.252,78.482 16.334,77.305 17.149,76.005 L 21.585,68.62 22.95,66.348 21.769,63.971 C 21.054,62.537 20.49,61.171 20.041,59.8 L 19.21,57.249 16.605,56.599 8.631,54.612 C 7.228,54.291 6.334,53.517 6.334,53.279 V 47.217 C 6.334,46.696 7.355,45.779 8.361,45.598 L 8.456,45.581 8.552,45.562 16.334,43.834 19.07,43.226 19.91,40.557 C 20.358,39.134 20.963,37.658 21.762,36.049 L 22.946,33.675 21.578,31.4 17.098,23.942 C 16.335,22.721 16.249,21.543 16.421,21.375 L 20.707,17.089 C 20.914,16.885 21.372,16.863 21.556,16.863 22.157,16.863 22.835,17.064 23.287,17.379 L 23.366,17.433 23.449,17.484 30.446,21.939 32.822,23.447 35.314,22.136 C 36.971,21.264 38.693,20.542 40.433,19.985 L 43.011,19.164 43.666,16.542 45.632,8.68 C 45.957,7.274 46.733,6.383 46.972,6.383 H 53.033 C 53.557,6.383 54.474,7.401 54.655,8.406 L 54.672,8.502 54.694,8.598 56.44,16.466 57.042,19.174 59.684,20.027 C 61.296,20.549 62.913,21.226 64.491,22.045 L 66.973,23.334 69.333,21.832 76.158,17.485 76.237,17.434 76.313,17.38 C 76.764,17.065 77.45,16.864 78.047,16.864 78.193,16.864 78.683,16.88 78.897,17.093 L 83.182,21.372 C 83.354,21.54 83.272,22.721 82.459,24.022 L 78.247,31.028 76.86,33.335 78.085,35.731 C 78.943,37.408 79.596,38.983 80.086,40.548 L 80.926,43.227 83.665,43.835 91.448,45.563 91.543,45.582 91.643,45.599 C 92.645,45.78 93.666,46.694 93.666,47.218 V 53.274 z M 50.042,30.582 C 39.316,30.582 30.586,39.287 30.586,49.987 30.586,60.687 39.316,69.392 50.042,69.392 60.771,69.392 69.498,60.687 69.498,49.987 69.498,39.287 60.771,30.582 50.042,30.582 z M 50.083,64.655 C 41.996,64.655 35.416,58.096 35.416,50.041 35.416,41.986 41.996,35.427 50.083,35.427 58.174,35.427 64.757,41.985 64.757,50.041 64.757,58.097 58.174,64.655 50.083,64.655 z"
             id="path11324" />
        </g>
      </g>
    </g>
    <rect
       ry="9.8275871"
       rx="9.8275862"
       inkscape:export-ydpi="300.0311"
       inkscape:export-xdpi="300.0311"
       inkscape:export-filename="/home/alexander/Documents/Bachelorarbeit2/svg/presentation/test.png"
       y="995.85358"
       x="0.49137932"
       height="56.017242"
       width="56.017242"
       id="rect60859"
       style="fill:url(#radialGradient60869);fill-opacity:1;stroke:url(#linearGradient60881);stroke-width:0.98275864000000002;opacity:0.74654378" />
    <rect
       ry="0"
       rx="0"
       inkscape:export-ydpi="300.0311"
       inkscape:export-xdpi="300.0311"
       inkscape:export-filename="/home/alexander/Documents/Bachelorarbeit2/svg/presentation/wp.png"
       y="995.36218"
       x="0"
       height="56.999996"
       width="57"
       id="rect60911"
       style="fill:#008080;fill-opacity:1;stroke:none" />
    <g
       transform="matrix(0.5096307,0,0,0.5096307,53.605252,836.06599)"
       id="g60913">
      <path
         style="fill:#ffd75e;fill-opacity:1;stroke:none"
         d="M -52.292903,324.88531 C -52.531903,324.88531 -53.311653,325.76056 -53.636653,327.16656 L -55.605403,335.04156 -56.261653,337.66656 -58.824153,338.47906 C -60.564153,339.03606 -62.292153,339.76331 -63.949153,340.63531 L -66.449153,341.94781 -68.824153,340.44781 -75.824153,335.97906 -75.886653,335.91656 -75.980403,335.88531 C -76.432403,335.57031 -77.098153,335.35406 -77.699153,335.35406 -77.883153,335.35406 -78.335903,335.36881 -78.542903,335.57281 L -82.855403,339.88531 C -83.027403,340.05331 -82.930903,341.22681 -82.167903,342.44781 L -77.699153,349.88531 -76.324153,352.16656 -77.511653,354.54156 C -78.310653,356.15056 -78.907403,357.61856 -79.355403,359.04156 L -80.199153,361.72906 -82.917903,362.32281 -90.699153,364.07281 -90.792903,364.07281 -90.886653,364.10406 C -91.892653,364.28506 -92.917903,365.20806 -92.917903,365.72906 L -92.917903,371.79156 C -92.917903,372.02956 -92.039653,372.78306 -90.636653,373.10406 L -82.667903,375.10406 -80.042903,375.76031 -79.230403,378.29156 C -78.781403,379.66256 -78.195403,381.04506 -77.480403,382.47906 L -76.324153,384.85406 -77.667903,387.10406 -82.105403,394.51031 C -82.920403,395.81031 -83.023403,396.99456 -82.855403,397.16656 L -78.542903,401.41656 C -78.329903,401.62957 -77.846153,401.66656 -77.699153,401.66656 -77.101153,401.66656 -76.435403,401.45031 -75.980403,401.13531 L -75.886653,401.10406 -75.824153,401.04156 -68.792903,396.57281 -66.417903,395.07281 -63.917903,396.38531 C -62.231903,397.27531 -60.517903,397.99756 -58.792903,398.54156 L -56.199153,399.35406 -55.542903,401.97906 -53.605403,409.72906 C -53.262403,411.22406 -52.499653,412.10406 -52.261653,412.10406 L -46.167903,412.10406 C -45.642903,412.10406 -44.756153,411.11106 -44.574153,410.10406 L -44.542903,410.01031 -44.511653,409.91656 -42.761653,402.01031 -42.167903,399.32281 -39.542903,398.44781 C -37.955903,397.93281 -36.355903,397.28807 -34.792903,396.47906 L -32.292903,395.16656 -29.949153,396.66656 -23.105403,401.04156 -23.011653,401.10406 -22.949153,401.13531 C -22.494153,401.45131 -21.828403,401.66656 -21.230403,401.66656 -21.087403,401.66656 -20.593653,401.65582 -20.386653,401.44781 L -16.074153,397.13531 C -15.912153,396.97332 -15.994653,395.79881 -16.761653,394.57281 L -21.011653,387.47906 -22.417903,385.16656 -21.199153,382.79156 C -20.439153,381.29956 -19.785903,379.78557 -19.292903,378.29156 L -18.449153,375.72906 -15.855403,375.10406 -7.980403,373.13531 C -6.488403,372.79331 -5.605403,371.99831 -5.605403,371.76031 L -5.605403,365.72906 C -5.605403,365.20506 -6.603403,364.28506 -7.605403,364.10406 L -7.730403,364.07281 -7.824153,364.07281 -15.605403,362.32281 -18.324153,361.72906 -19.167903,359.04156 C -19.657903,357.47656 -20.309903,355.90606 -21.167903,354.22906 L -22.386653,351.82281 -21.011653,349.51031 -16.792903,342.51031 C -15.979903,341.20931 -15.902153,340.02206 -16.074153,339.85406 L -20.355403,335.60406 C -20.569403,335.39106 -21.053153,335.35406 -21.199153,335.35406 -21.796153,335.35406 -22.498153,335.57031 -22.949153,335.88531 L -23.011653,335.91656 -23.105403,335.97906 -29.917903,340.32281 -32.292903,341.82281 -34.761653,340.54156 C -36.339653,339.72256 -37.962153,339.03231 -39.574153,338.51031 L -42.230403,337.66656 -42.824153,334.97906 -44.574153,327.10406 -44.574153,327.01031 -44.605403,326.91656 C -44.786403,325.91156 -45.706403,324.88531 -46.230403,324.88531 L -52.292903,324.88531 z M -49.230403,349.07281 C -38.501403,349.07281 -29.761653,357.77906 -29.761653,368.47906 -29.761653,379.17906 -38.501403,387.88531 -49.230403,387.88531 -59.956403,387.88531 -68.667903,379.17906 -68.667903,368.47906 -68.667903,357.77906 -59.956403,349.07281 -49.230403,349.07281 z"
         id="path60915"
         inkscape:connector-curvature="0" />
      <g
         transform="translate(-99.262653,318.49669)"
         id="g60917">
        <g
           id="g60919">
          <path
             id="path60921"
             d="M 92.501,40.823 84.719,39.098 C 84.111,37.161 83.32,35.306 82.406,33.521 L 86.619,26.511 C 88.191,24 88.983,20.31 86.619,17.943 L 82.327,13.657 C 81.169,12.499 79.613,12.009 78.048,12.009 76.422,12.009 74.779,12.537 73.549,13.389 L 66.724,17.735 C 64.953,16.816 63.104,16.033 61.178,15.409 L 59.429,7.541 C 58.91,4.652 56.384,1.528 53.033,1.528 H 46.972 C 43.622,1.528 41.569,4.7 40.905,7.589 L 38.961,15.362 C 36.903,16.017 34.933,16.854 33.052,17.843 L 26.056,13.388 C 24.828,12.535 23.183,12.008 21.557,12.008 19.992,12.008 18.439,12.498 17.278,13.656 L 12.992,17.942 C 10.621,20.309 11.413,24 12.992,26.51 L 17.421,33.888 C 16.59,35.562 15.852,37.289 15.283,39.096 L 7.501,40.821 C 4.612,41.343 1.484,43.866 1.484,47.21 V 53.272 C 1.484,56.615 4.659,58.668 7.548,59.33 L 15.429,61.296 C 15.976,62.962 16.654,64.57 17.424,66.123 L 12.992,73.508 C 11.417,76.015 10.625,79.704 12.992,82.072 L 17.281,86.358 C 18.439,87.516 19.991,88.004 21.56,88.004 23.185,88.004 24.828,87.478 26.059,86.625 L 33.072,82.16 C 34.962,83.156 36.945,83.999 39.012,84.655 L 40.953,92.408 C 41.615,95.295 43.666,98.468 47.016,98.468 H 53.081 C 56.431,98.468 58.958,95.342 59.477,92.454 L 61.229,84.566 C 63.132,83.951 64.958,83.175 66.712,82.267 L 73.549,86.624 C 74.779,87.477 76.422,88.003 78.048,88.003 79.613,88.003 81.169,87.515 82.327,86.357 L 86.619,82.071 C 88.983,79.703 88.191,76.013 86.619,73.507 L 82.403,66.487 C 83.25,64.823 83.984,63.091 84.573,61.295 L 92.454,59.329 C 95.344,58.667 98.518,56.614 98.518,53.271 V 47.209 C 98.518,43.869 95.394,41.346 92.501,40.823 z M 93.666,53.274 C 93.666,53.512 92.771,54.286 91.279,54.628 L 83.398,56.594 80.798,57.244 79.964,59.789 C 79.471,61.283 78.838,62.798 78.078,64.29 L 76.855,66.684 78.239,68.985 82.504,76.076 C 83.271,77.302 83.353,78.482 83.191,78.644 L 78.889,82.936 C 78.682,83.144 78.189,83.163 78.046,83.163 77.448,83.163 76.763,82.959 76.308,82.643 L 76.236,82.591 76.157,82.541 69.316,78.182 66.959,76.68 64.478,77.966 C 62.915,78.775 61.321,79.442 59.734,79.957 L 57.092,80.81 56.49,83.52 54.741,91.407 54.719,91.502 54.702,91.598 C 54.52,92.605 53.605,93.622 53.08,93.622 H 47.015 C 46.777,93.622 46,92.731 45.657,91.236 L 43.716,83.481 43.057,80.853 40.471,80.036 C 38.746,79.492 37.019,78.766 35.333,77.876 L 32.839,76.562 30.462,78.077 23.449,82.544 23.369,82.592 23.293,82.646 C 22.838,82.961 22.157,83.166 21.559,83.166 21.412,83.166 20.922,83.147 20.709,82.934 L 16.42,78.654 C 16.252,78.482 16.334,77.305 17.149,76.005 L 21.585,68.62 22.95,66.348 21.769,63.971 C 21.054,62.537 20.49,61.171 20.041,59.8 L 19.21,57.249 16.605,56.599 8.631,54.612 C 7.228,54.291 6.334,53.517 6.334,53.279 V 47.217 C 6.334,46.696 7.355,45.779 8.361,45.598 L 8.456,45.581 8.552,45.562 16.334,43.834 19.07,43.226 19.91,40.557 C 20.358,39.134 20.963,37.658 21.762,36.049 L 22.946,33.675 21.578,31.4 17.098,23.942 C 16.335,22.721 16.249,21.543 16.421,21.375 L 20.707,17.089 C 20.914,16.885 21.372,16.863 21.556,16.863 22.157,16.863 22.835,17.064 23.287,17.379 L 23.366,17.433 23.449,17.484 30.446,21.939 32.822,23.447 35.314,22.136 C 36.971,21.264 38.693,20.542 40.433,19.985 L 43.011,19.164 43.666,16.542 45.632,8.68 C 45.957,7.274 46.733,6.383 46.972,6.383 H 53.033 C 53.557,6.383 54.474,7.401 54.655,8.406 L 54.672,8.502 54.694,8.598 56.44,16.466 57.042,19.174 59.684,20.027 C 61.296,20.549 62.913,21.226 64.491,22.045 L 66.973,23.334 69.333,21.832 76.158,17.485 76.237,17.434 76.313,17.38 C 76.764,17.065 77.45,16.864 78.047,16.864 78.193,16.864 78.683,16.88 78.897,17.093 L 83.182,21.372 C 83.354,21.54 83.272,22.721 82.459,24.022 L 78.247,31.028 76.86,33.335 78.085,35.731 C 78.943,37.408 79.596,38.983 80.086,40.548 L 80.926,43.227 83.665,43.835 91.448,45.563 91.543,45.582 91.643,45.599 C 92.645,45.78 93.666,46.694 93.666,47.218 V 53.274 z M 50.042,30.582 C 39.316,30.582 30.586,39.287 30.586,49.987 30.586,60.687 39.316,69.392 50.042,69.392 60.771,69.392 69.498,60.687 69.498,49.987 69.498,39.287 60.771,30.582 50.042,30.582 z M 50.083,64.655 C 41.996,64.655 35.416,58.096 35.416,50.041 35.416,41.986 41.996,35.427 50.083,35.427 58.174,35.427 64.757,41.985 64.757,50.041 64.757,58.097 58.174,64.655 50.083,64.655 z"
             inkscape:connector-curvature="0" />
        </g>
      </g>
    </g>
  </g>
</svg>
